# xmcd
#
# Track frame offsets: 
#        150
#        28746
#        45443
#        56560
#        69978
#        81837
#        92520
#        102944
#        115260
#        129372
#
# Disc length: 1851 seconds
#
# Revision: 0
# Processed by: cddbd v1.5.2PL0 Copyright (c) Steve Scherf et al.
# Submitted via: ExactAudioCopyFreeDBPlugin 1.0
#
DISCID=7807390a
DTITLE=John Williamson - Butcherbird
DYEAR=2018
DGENRE=Country
TTITLE0=The Valley Of His Dreams
TTITLE1=Pigs On The River
TTITLE2=Looking For A Story
TTITLE3=Buddy and Slim
TTITLE4=Simpson Desert
TTITLE5=Please Don't Forget Me
TTITLE6=Lucky To Be Alive
TTITLE7=You Don't Love Your Love Anymore
TTITLE8=Time Is Slippin' Away
TTITLE9=When My Horse Came In
EXTD=
EXTT0=
EXTT1=
EXTT2=
EXTT3=
EXTT4=
EXTT5=
EXTT6=
EXTT7=
EXTT8=
EXTT9=
PLAYORDER=
